<?xml version="1.0" encoding="UTF-8"?>
<svg id="Layer_1" xmlns="http://www.w3.org/2000/svg" version="1.1" viewBox="0 0 36 36">
  <!-- Generator: Adobe Illustrator 29.1.0, SVG Export Plug-In . SVG Version: 2.1.0 Build 142)  -->
  <defs>
    <style>
      .st0 {
        fill: #fdcd00;
      }
    </style>
  </defs>
  <path class="st0" d="M18,13.5c2.5,0,4.5,2,4.5,4.5s-2,4.5-4.5,4.5-4.5-2-4.5-4.5,2-4.5,4.5-4.5ZM18,10.5c-4.1,0-7.5,3.4-7.5,7.5s3.4,7.5,7.5,7.5,7.5-3.4,7.5-7.5-3.4-7.5-7.5-7.5ZM3,19.5h3c.8,0,1.5-.7,1.5-1.5s-.7-1.5-1.5-1.5h-3c-.8,0-1.5.7-1.5,1.5s.7,1.5,1.5,1.5ZM30,19.5h3c.8,0,1.5-.7,1.5-1.5s-.7-1.5-1.5-1.5h-3c-.8,0-1.5.7-1.5,1.5s.7,1.5,1.5,1.5ZM16.5,3v3c0,.8.7,1.5,1.5,1.5s1.5-.7,1.5-1.5v-3c0-.8-.7-1.5-1.5-1.5s-1.5.7-1.5,1.5ZM16.5,30v3c0,.8.7,1.5,1.5,1.5s1.5-.7,1.5-1.5v-3c0-.8-.7-1.5-1.5-1.5s-1.5.7-1.5,1.5ZM9,6.9c-.1-.1-.3-.2-.5-.3-.2,0-.4-.1-.6-.1s-.4,0-.6.1c-.2,0-.3.2-.5.3-.1.1-.2.3-.3.5,0,.2-.1.4-.1.6s0,.4.1.6c0,.2.2.3.3.5l1.6,1.6c.6.6,1.5.6,2.1,0,.6-.6.6-1.5,0-2.1l-1.6-1.6ZM27.5,25.4c-.1-.1-.3-.2-.5-.3-.2,0-.4-.1-.6-.1s-.4,0-.6.1c-.2,0-.3.2-.5.3-.1.1-.2.3-.3.5,0,.2-.1.4-.1.6s0,.4.1.6c0,.2.2.3.3.5l1.6,1.6c.6.6,1.5.6,2.1,0,.1-.1.2-.3.3-.5,0-.2.1-.4.1-.6s0-.4-.1-.6c0-.2-.2-.3-.3-.5l-1.6-1.6ZM29.1,9c.1-.1.2-.3.3-.5,0-.2.1-.4.1-.6s0-.4-.1-.6c0-.2-.2-.3-.3-.5-.1-.1-.3-.2-.5-.3-.2,0-.4-.1-.6-.1s-.4,0-.6.1c-.2,0-.3.2-.5.3l-1.6,1.6c-.6.6-.6,1.5,0,2.1.6.6,1.5.6,2.1,0l1.6-1.6ZM10.6,27.5c.1-.1.2-.3.3-.5,0-.2.1-.4.1-.6s0-.4-.1-.6c0-.2-.2-.3-.3-.5-.1-.1-.3-.2-.5-.3-.2,0-.4-.1-.6-.1s-.4,0-.6.1c-.2,0-.3.2-.5.3l-1.6,1.6c-.6.6-.6,1.5,0,2.1.6.6,1.5.6,2.1,0l1.6-1.6h0Z"/>
</svg>