<?xml version="1.0" encoding="UTF-8"?>
<svg id="Layer_2" data-name="Layer 2" xmlns="http://www.w3.org/2000/svg" viewBox="0 0 83.35 19.72">
  <defs>
    <style>
      .cls-1 {
        fill: #fed746;
      }

      .cls-2 {
        fill: #727171;
      }

      .cls-3 {
        fill: #fdcd02;
      }

      .cls-4 {
        fill: #e67e00;
      }

      .cls-5 {
        fill: #266ab4;
      }

      .cls-6 {
        fill: #d85212;
      }

      .cls-7 {
        fill: #74cbf3;
      }

      .cls-8 {
        fill: #59c4f1;
      }

      .cls-9 {
        fill: #23a1dd;
      }
    </style>
  </defs>
  <g id="Layer_1-2" data-name="Layer 1">
    <g>
      <path class="cls-2" d="M36.75,0c-1.36,0-2.46,1.1-2.46,2.46s1.1,2.46,2.46,2.46,2.46-1.1,2.46-2.46-1.1-2.46-2.46-2.46"/>
      <path class="cls-2" d="M39.21,9.86c0-1.36-1.1-2.46-2.46-2.46s-2.46,1.1-2.46,2.46v7.39c0,1.36,1.1,2.46,2.46,2.46s2.46-1.1,2.46-2.46v-7.39Z"/>
      <path class="cls-2" d="M80.89,0c-1.36,0-2.46,1.1-2.46,2.46s1.1,2.46,2.46,2.46,2.46-1.1,2.46-2.46-1.1-2.46-2.46-2.46"/>
      <path class="cls-2" d="M83.35,9.86c0-1.36-1.1-2.46-2.46-2.46s-2.46,1.1-2.46,2.46v7.39c0,1.36,1.1,2.46,2.46,2.46s2.46-1.1,2.46-2.46v-7.39Z"/>
      <path class="cls-7" d="M1.52.21C.26.73-.33,2.17.19,3.43c.52,1.26,1.96,1.85,3.22,1.33,1.26-.52,1.85-1.96,1.33-3.22C4.22.29,2.78-.31,1.52.21"/>
      <path class="cls-5" d="M27.83.21c1.26.52,1.85,1.96,1.33,3.22-.52,1.26-1.96,1.85-3.22,1.33-1.26-.52-1.85-1.96-1.33-3.22.52-1.26,1.96-1.85,3.22-1.33"/>
      <path class="cls-5" d="M21.78,8.38c.52-1.26,1.96-1.85,3.22-1.33,1.26.52,1.85,1.96,1.33,3.22-.17.41-3.1,7.49-3.28,7.91-.52,1.26-5.08-.63-4.55-1.89.17-.41,3.1-7.49,3.28-7.91"/>
      <path class="cls-9" d="M23.06,16.29c-.17-.41-3.1-7.49-3.28-7.91h0c-.87-2.1-2.69-6.51-2.83-6.83-.52-1.26-5.08.63-4.55,1.89.17.41,3.1,7.49,3.28,7.91h0c.87,2.1,2.7,6.51,2.83,6.83.52,1.26,1.96,1.85,3.22,1.33s1.85-1.96,1.33-3.22"/>
      <path class="cls-8" d="M15.62.21c-1.26-.52-2.7.08-3.22,1.33-.13.32-1.96,4.73-2.83,6.83h0c-.17.42-3.1,7.49-3.28,7.91-.52,1.26,4.03,3.14,4.55,1.89.13-.32,1.96-4.73,2.83-6.83h0c.17-.42,3.1-7.49,3.28-7.91.52-1.26-.08-2.7-1.33-3.22"/>
      <path class="cls-7" d="M7.57,8.38c-.52-1.26-1.96-1.85-3.22-1.33-1.26.52-1.85,1.96-1.33,3.22.17.41,3.1,7.49,3.28,7.91.52,1.26,1.96,1.85,3.22,1.33s1.85-1.96,1.33-3.22c-.17-.41-3.1-7.49-3.28-7.91"/>
      <path class="cls-1" d="M45.66.21c-1.26.52-1.85,1.96-1.33,3.22s1.96,1.85,3.22,1.33c1.26-.52,1.85-1.96,1.33-3.22s-1.96-1.85-3.22-1.33"/>
      <path class="cls-6" d="M71.97.21c1.26.52,1.85,1.96,1.33,3.22-.52,1.26-1.96,1.85-3.22,1.33s-1.85-1.96-1.33-3.22,1.96-1.85,3.22-1.33"/>
      <path class="cls-6" d="M65.92,8.38c.52-1.26,1.96-1.85,3.22-1.33s1.85,1.96,1.33,3.22c-.17.41-3.1,7.49-3.28,7.91-.52,1.26-5.08-.63-4.55-1.89.17-.41,3.1-7.49,3.28-7.91"/>
      <path class="cls-4" d="M67.2,16.29c-.17-.41-3.1-7.49-3.28-7.91h0c-.87-2.1-2.69-6.51-2.83-6.83-.52-1.26-5.08.63-4.55,1.89.17.41,3.1,7.49,3.28,7.91h0c.87,2.1,2.7,6.51,2.83,6.83.52,1.26,1.96,1.85,3.22,1.33s1.85-1.96,1.33-3.22"/>
      <path class="cls-3" d="M59.76.21c-1.26-.52-2.7.08-3.22,1.33-.13.32-1.96,4.73-2.83,6.83h0c-.17.42-3.1,7.49-3.28,7.91-.52,1.26,4.03,3.14,4.55,1.89.13-.32,1.96-4.73,2.83-6.83h0c.17-.42,3.1-7.49,3.28-7.91.52-1.26-.08-2.7-1.33-3.22"/>
      <path class="cls-1" d="M51.71,8.38c-.52-1.26-1.96-1.85-3.22-1.33s-1.85,1.96-1.33,3.22c.17.41,3.1,7.49,3.28,7.91.52,1.26,1.96,1.85,3.22,1.33s1.85-1.96,1.33-3.22c-.17-.41-3.1-7.49-3.28-7.91"/>
    </g>
  </g>
</svg>