<?xml version="1.0" encoding="UTF-8"?>
<svg id="Layer_1" xmlns="http://www.w3.org/2000/svg" xmlns:xlink="http://www.w3.org/1999/xlink" version="1.1" viewBox="0 0 600 600">
  <!-- Generator: Adobe Illustrator 29.1.0, SVG Export Plug-In . SVG Version: 2.1.0 Build 142)  -->
  <defs>
    <style>
      .st0 {
        fill: #6e6f72;
      }

      .st1 {
        fill: #bcbec0;
      }

      .st2 {
        fill: url(#linear-gradient);
      }

      .st3 {
        fill: #606060;
      }
    </style>
    <linearGradient id="linear-gradient" x1="96" y1="162.1" x2="421.4" y2="509.9" gradientUnits="userSpaceOnUse">
      <stop offset="0" stop-color="#67c8f2"/>
      <stop offset="1" stop-color="#2f75b7"/>
    </linearGradient>
  </defs>
  <path class="st3" d="M283.1,145.4c0-10.5-.4-26.2-.7-42.8-.4-19.4-1-41.3-1-58.4V13c0-3.7-7.5-6.5-17.6-6.5s-17.5,2.8-17.5,6.5v36.8c0,10.5-.4,25-.8,40.4-.5,17.8-1.1,37.9-1.1,55-.6.5-1,1-1,1.6v24.2c0,.5.4.9.9.9s.8-.3.8-.7c.6-.4,3.5-.1,6.2,0,3.3.6,7.6,1.3,12.3,1.3s9.5-.8,13-1.4c2.5-.2,4.9-.3,5.4,0,0,.4.4.7.8.7h.1c.5,0,.9-.4.9-.9v-24.2c0-.5-.3-1-.8-1.4Z"/>
  <g>
    <path class="st0" d="M449.3,417.3c-.8,0-1.4-.6-1.4-1.4s.6-1.4,1.4-1.4c.7-.3,2.1-4.4,2.1-12.2s-1.4-11.8-2.2-12.2c-.8,0-1.3-.6-1.3-1.4s.6-1.4,1.4-1.4c4.4,0,4.9,10.4,4.9,14.9s-.3,7.1-.9,9.6c-.3,1.3-1.2,5.3-4,5.3v.2Z"/>
    <path class="st0" d="M449.3,490.4c-.8,0-1.4-.6-1.4-1.4s.6-1.4,1.4-1.4c.7-.3,2.1-4.4,2.1-12.2s-1.4-11.8-2.2-12.2c-.8,0-1.3-.6-1.3-1.4s.6-1.4,1.4-1.4c4.4,0,4.9,10.4,4.9,14.9s-.3,7.1-.9,9.6c-.3,1.3-1.2,5.3-4,5.3v.2Z"/>
    <path class="st2" d="M419,589.9h-238c-18.1,0-32.9-14.8-32.9-32.9V203.4c0-18.1,14.8-32.9,32.9-32.9h238c18.1,0,32.9,14.8,32.9,32.9v353.6c0,18.1-14.8,32.9-32.9,32.9Z"/>
    <path class="st1" d="M419,592.6h-238c-19.7,0-35.7-16-35.7-35.7V203.4c0-19.7,16-35.7,35.7-35.7h238c19.7,0,35.7,16,35.7,35.7v353.6c0,19.7-16,35.7-35.7,35.7h0ZM150.8,557c0,16.7,13.5,30.2,30.2,30.2h238c16.7,0,30.2-13.5,30.2-30.2V203.3c0-16.7-13.5-30.2-30.2-30.2h-238c-16.7,0-30.2,13.5-30.2,30.2v353.7Z"/>
  </g>
</svg>