<?xml version="1.0" encoding="UTF-8"?>
<svg id="Layer_1" xmlns="http://www.w3.org/2000/svg" xmlns:xlink="http://www.w3.org/1999/xlink" version="1.1" viewBox="0 0 600 600">
  <!-- Generator: Adobe Illustrator 29.1.0, SVG Export Plug-In . SVG Version: 2.1.0 Build 142)  -->
  <defs>
    <style>
      .st0 {
        fill: #e8e9eb;
      }

      .st1 {
        fill: #6e6f72;
      }

      .st2 {
        fill: url(#linear-gradient2);
      }

      .st3 {
        fill: url(#linear-gradient1);
      }

      .st4 {
        fill: url(#linear-gradient3);
      }

      .st5 {
        fill: #bcbec0;
      }

      .st6 {
        fill: #979797;
      }

      .st7 {
        fill: url(#linear-gradient);
      }

      .st8 {
        fill: #404141;
        opacity: .2;
      }

      .st9 {
        fill: #606060;
      }

      .st10 {
        fill: #a8aaad;
      }

      .st11 {
        opacity: .8;
      }

      .st12 {
        opacity: .5;
      }

      .st13 {
        opacity: .3;
      }

      .st14 {
        fill: none;
        stroke: #606060;
        stroke-linecap: round;
        stroke-linejoin: round;
        stroke-width: .7px;
      }
    </style>
    <linearGradient id="linear-gradient" x1="206.8" y1="522.4" x2="215.2" y2="584.3" gradientTransform="translate(693.3 220.1) rotate(77.5)" gradientUnits="userSpaceOnUse">
      <stop offset="0" stop-color="#979797"/>
      <stop offset="1" stop-color="#333"/>
    </linearGradient>
    <linearGradient id="linear-gradient1" x1="266.4" y1="514.3" x2="274.8" y2="576.2" gradientTransform="translate(740.9 160.9) rotate(77.5)" xlink:href="#linear-gradient"/>
    <linearGradient id="linear-gradient2" x1="326.1" y1="506.3" x2="334.4" y2="568.2" gradientTransform="translate(788.4 101.6) rotate(77.5)" xlink:href="#linear-gradient"/>
    <linearGradient id="linear-gradient3" x1="363" y1="526.5" x2="401.2" y2="562.4" gradientTransform="translate(826.6 54) rotate(77.5)" gradientUnits="userSpaceOnUse">
      <stop offset="0" stop-color="#67c8f2"/>
      <stop offset=".3" stop-color="#51c4f1"/>
      <stop offset=".5" stop-color="#37b0e4"/>
      <stop offset=".7" stop-color="#23a0da"/>
      <stop offset=".7" stop-color="#2695d1"/>
      <stop offset="1" stop-color="#2f75b7"/>
    </linearGradient>
  </defs>
  <g>
    <line class="st9" x1="275.4" y1="136.8" x2="277" y2="137.3"/>
    <path class="st9" d="M274,138.5"/>
    <path class="st1" d="M248.6,148c-.8,0-1.4-.6-1.4-1.4,0-4.4,11.6-4.9,16-4.9,4.5,0,16.2.5,16.2,4.9,0,.8-.6,1.4-1.4,1.4-.8,0-1.4-.6-1.4-1.4-.3-.7-5.7-2.1-13.5-2.1-7.8,0-13,1.4-13.3,2.2,0,.8-.6,1.3-1.4,1.3Z"/>
    <g>
      <path class="st9" d="M247.8,30.5l2.5-1.7s5.1-1.5,5-1.5,4.3-.6,4.3-.6h6c0,0,3.5,0,3.5,0l4.8.9,3.6,1.3,2.2,1.3.9.4-.3-17.6-.2-.9-1-1.1-3.9-2.1-2.8-.4-5.2-.8h-5.8l-5.6.5-3.2.9-3,1-2.4,1.7v19.1s.5-.5.5-.5Z"/>
      <path class="st9" d="M245.9,145l2-.6,2.8-.6,3.3-.6,2.7-.2,3-.3h9.4c0,.1,2.4.3,2.4.3l2.7.3,2.2.4,2.8.6,2.2.8.8.5v-3.3c.1,0,.2-6.3.2-6.3v-3.4c-.1,0-.3-3.2-.3-3.2v-3.8c-.1,0-.4-3.7-.4-3.7v-3.3s0-2.4,0-2.4l-.2-10.1-.5-18.4-.6-32.7v-11.7s-.8-.9-.8-.9l-2.3-1.5-3.7-1.2-4.5-.6-6.4-.3s-4.4.3-4.4.3l-4.9.9-4,1.7-1.1.9-.7.6-.2,4.2-.6,34.8-.9,37.5-.3,25.5.4-.3Z"/>
      <polygon class="st6" points="249.6 35.9 248.5 37.3 247.2 38.8 247.2 41.5 252.4 38.9 255.2 38.3 260.4 37.8 265.2 37.5 269.5 37.7 274.8 38.9 277.7 40.1 279.3 40.8 280.6 41.2 280.6 38.6 279.3 36.4 276.2 34.8 269.1 33.3 259.9 33.2 254.7 34.1 250.3 35.3 249.6 35.9"/>
      <line class="st14" x1="247.7" y1="37.7" x2="247.7" y2="42"/>
      <line class="st14" x1="280.1" y1="37.7" x2="280.1" y2="42"/>
      <polygon class="st9" points="247.8 35.9 247.6 37.5 249 36.7 249.9 36.1 252.5 35.3 255.6 34.6 259.3 33.9 263.6 33.7 266.9 33.8 269.6 34 272.8 34.3 274.4 34.8 278.2 36.1 280 37.4 280.4 38.1 280 35.3 279 34.4 277.3 33.6 273.7 32.3 269.6 31.6 265.2 31.2 259.6 31.3 254.9 32.2 249.6 34 247.8 35.7 247.8 35.9"/>
      <polygon class="st9" points="247.8 40.9 247.8 42.4 249 41.7 249.9 41.1 252.5 40.3 255.6 39.6 259.3 38.9 263.6 38.7 266.9 38.8 269.6 39 272.8 39.3 274.4 39.8 278.2 41.1 280 42.4 280.4 43.1 280 40.3 279 39.4 277.3 38.6 273.7 37.3 269.6 36.6 265.2 36.1 259.6 36.3 254.9 37.2 249.6 39 247.8 40.7 247.8 40.9"/>
      <polygon class="st6" points="249.6 29.5 248.1 30.4 247.7 32.7 248.2 34.6 252.4 32.5 255.2 31.9 260.4 31.4 265.2 31.2 269.5 31.3 274.8 32.5 277.7 33.7 279.3 34.4 279.9 34.8 280.3 31.5 279.3 30 276.2 28.4 269.1 26.9 259.9 26.8 254.7 27.7 250.3 29 249.6 29.5"/>
      <path class="st6" d="M283.3,171c0-2.1-8.9,1.5-19.6,1.5s-19.1-3.6-19.1-1.5v-24.2c0-2.1,8.7-3.7,19.4-3.7s19.4,1.7,19.4,3.7v24.2Z"/>
      <path class="st14" d="M283,171c0-2.1-8.9,0-19.6,0s-19.1-2.1-19.1,0v-24.2c0-2.1,8.7-3.7,19.4-3.7s19.4,1.7,19.4,3.7v24.2Z"/>
      <path class="st14" d="M245.5,145.7"/>
      <path class="st14" d="M245.5,169.6"/>
      <line class="st14" x1="246.9" y1="168.9" x2="246.9" y2="145.1"/>
      <path class="st14" d="M248.8,144.6"/>
      <path class="st14" d="M248.8,168.9"/>
      <line class="st14" x1="250.6" y1="168.9" x2="250.6" y2="144.1"/>
      <line class="st14" x1="254.3" y1="168.9" x2="254.3" y2="143.3"/>
      <line class="st14" x1="258" y1="168.9" x2="258" y2="143.3"/>
      <line class="st14" x1="261.6" y1="168.9" x2="261.6" y2="143.3"/>
      <line class="st14" x1="265.3" y1="168.9" x2="265.3" y2="143.3"/>
      <line class="st14" x1="269" y1="168.9" x2="269" y2="143.3"/>
      <line class="st14" x1="272.6" y1="168.9" x2="272.6" y2="143.3"/>
      <line class="st14" x1="276.3" y1="168.9" x2="276.3" y2="144.2"/>
      <line class="st14" x1="280" y1="168.9" x2="280" y2="145.1"/>
      <path class="st14" d="M247.2,45.2v-3.1c0-3.1,7.5-5.6,16.7-5.6s16.7,2.5,16.7,5.6v2c0-3.1-7.5-5.6-16.7-5.6s-16.7,2.5-16.7,5.6v5.7c0,22.9-1.9,64-1.9,95.8"/>
      <path class="st14" d="M282.3,145.6c0-22.9-1.7-69.8-1.7-101.5"/>
      <path class="st14" d="M280.6,39.3c0-3.1-7.5-5.6-16.7-5.6s-16.7,2.5-16.7,5.6v-2.4c0-3.1,7.5-5.6,16.7-5.6s16.7,2.5,16.7,5.6v2.4Z"/>
      <path class="st14" d="M280.6,32.2c0-3.1-7.5-5.6-16.7-5.6s-16.7,2.5-16.7,5.6V13c0-3.1,7.5-5.6,16.7-5.6s16.7,2.5,16.7,5.6v19.3Z"/>
      <line class="st14" x1="247.7" y1="31.1" x2="247.7" y2="35.4"/>
      <line class="st14" x1="280.2" y1="35.3" x2="280.2" y2="31"/>
    </g>
  </g>
  <g>
    <path class="st1" d="M449.3,417.3c-.8,0-1.4-.6-1.4-1.4,0-.8.6-1.4,1.4-1.4.7-.3,2.1-4.4,2.1-12.2,0-7.8-1.4-11.8-2.2-12.2-.8,0-1.3-.6-1.3-1.4,0-.8.6-1.4,1.4-1.4,4.4,0,4.9,10.4,4.9,14.9s-.3,7.1-.9,9.6c-.3,1.3-1.2,5.3-4,5.3Z"/>
    <path class="st1" d="M449.3,490.4c-.8,0-1.4-.6-1.4-1.4,0-.8.6-1.4,1.4-1.4.7-.3,2.1-4.4,2.1-12.2,0-7.8-1.4-11.8-2.2-12.2-.8,0-1.3-.6-1.3-1.4,0-.8.6-1.4,1.4-1.4,4.4,0,4.9,10.4,4.9,14.9,0,3.7-.3,7.1-.9,9.6-.3,1.3-1.2,5.3-4,5.3Z"/>
    <path class="st5" d="M419,589.9h-238c-18.1,0-32.9-14.8-32.9-32.9v-28.1s4.9,0,4.9,0v-99.8s-4.9,0-4.9,0v-225.7c0-18.1,14.8-32.9,32.9-32.9h238c18.1,0,32.9,14.8,32.9,32.9v353.6c0,18.1-14.8,32.9-32.9,32.9Z"/>
    <path class="st5" d="M419,592.6h-238c-19.7,0-35.7-16-35.7-35.7v-28.1c0-1.5,1.2-2.7,2.7-2.7h2.2s0-94.3,0-94.3h-2.2c-1.5,0-2.7-1.2-2.7-2.7v-225.7c0-19.7,16-35.7,35.7-35.7h238c19.7,0,35.7,16,35.7,35.7v353.6c0,19.7-16,35.7-35.7,35.7ZM150.8,531.6v25.4c0,16.7,13.5,30.2,30.2,30.2h238c16.7,0,30.2-13.5,30.2-30.2V203.3c0-16.7-13.5-30.2-30.2-30.2h-238c-16.7,0-30.2,13.5-30.2,30.2v223s2.2,0,2.2,0c1.5,0,2.7,1.2,2.7,2.7v99.8c0,1.5-1.2,2.7-2.7,2.7h-2.2Z"/>
    <g>
      <circle class="st7" cx="209.5" cy="542.2" r="10.7" transform="translate(-365.2 629.1) rotate(-77.5)"/>
      <path class="st10" d="M209.5,554.2c-6.6,0-12-5.4-12-12.1,0-6.6,5.4-12,12-12,6.6,0,12.1,5.4,12.1,12,0,6.6-5.4,12.1-12.1,12.1ZM209.5,532.9c-5.1,0-9.3,4.2-9.3,9.3,0,5.1,4.2,9.3,9.3,9.3,5.1,0,9.3-4.2,9.3-9.3,0-5.1-4.2-9.3-9.3-9.3Z"/>
    </g>
    <g>
      <circle class="st3" cx="270.2" cy="542.2" r="10.7" transform="translate(-317.6 688.4) rotate(-77.5)"/>
      <path class="st10" d="M270.2,554.2c-6.6,0-12.1-5.4-12.1-12.1,0-6.6,5.4-12,12.1-12,6.6,0,12,5.4,12,12,0,6.6-5.4,12.1-12,12.1ZM270.2,532.9c-5.1,0-9.3,4.2-9.3,9.3,0,5.1,4.2,9.3,9.3,9.3,5.1,0,9.3-4.2,9.3-9.3,0-5.1-4.2-9.3-9.3-9.3Z"/>
    </g>
    <g>
      <circle class="st2" cx="330.9" cy="542.2" r="10.7" transform="translate(-270.1 747.7) rotate(-77.5)"/>
      <path class="st10" d="M330.9,554.2c-6.6,0-12-5.4-12-12.1,0-6.6,5.4-12,12-12,6.6,0,12.1,5.4,12.1,12,0,6.6-5.4,12.1-12.1,12.1ZM330.9,532.9c-5.1,0-9.3,4.2-9.3,9.3,0,5.1,4.2,9.3,9.3,9.3,5.1,0,9.3-4.2,9.3-9.3,0-5.1-4.2-9.3-9.3-9.3Z"/>
    </g>
    <g>
      <circle class="st4" cx="379.7" cy="542.2" r="7.7" transform="translate(-231.9 795.3) rotate(-77.5)"/>
      <path class="st10" d="M379.7,551.2c-5,0-9.1-4.1-9.1-9.1,0-5,4.1-9.1,9.1-9.1,5,0,9.1,4.1,9.1,9.1,0,5-4.1,9.1-9.1,9.1ZM379.7,535.8c-3.5,0-6.3,2.8-6.3,6.3,0,3.5,2.8,6.3,6.3,6.3,3.5,0,6.3-2.8,6.3-6.3,0-3.5-2.8-6.3-6.3-6.3Z"/>
    </g>
    <g class="st11">
      <circle class="st0" cx="209.5" cy="542.2" r="6.4" transform="translate(-362.7 644.3) rotate(-79)"/>
    </g>
    <g class="st11">
      <circle class="st0" cx="270.2" cy="542.2" r="6.4" transform="translate(-313.6 703.9) rotate(-79)"/>
    </g>
    <g class="st11">
      <circle class="st0" cx="330.9" cy="542.2" r="6.4" transform="translate(-264.5 763.4) rotate(-79)"/>
    </g>
    <g>
      <g class="st12">
        <path class="st10" d="M181,217.4c-7.7,0-14-6.3-14-14,0-7.7,6.3-14,14-14,7.7,0,14,6.3,14,14,0,7.7-6.3,14-14,14ZM181,194.8c-4.7,0-8.5,3.8-8.5,8.5,0,4.7,3.8,8.5,8.5,8.5,4.7,0,8.5-3.8,8.5-8.5,0-4.7-3.8-8.5-8.5-8.5Z"/>
      </g>
      <g class="st13">
        <circle class="st1" cx="181" cy="203.3" r="7.5" transform="translate(-85.5 258.9) rotate(-60.1)"/>
      </g>
      <polygon class="st8" points="186.5 202.6 181.7 202.6 181.7 197.8 180.3 197.8 180.3 202.6 175.5 202.6 175.5 204 180.3 204 180.3 208.9 181.7 208.9 181.7 204 186.5 204 186.5 202.6"/>
    </g>
  </g>
  <g>
    <g class="st12">
      <path class="st10" d="M419,217.4c-7.7,0-14-6.3-14-14,0-7.7,6.3-14,14-14,7.7,0,14,6.3,14,14,0,7.7-6.3,14-14,14ZM419,194.8c-4.7,0-8.5,3.8-8.5,8.5,0,4.7,3.8,8.5,8.5,8.5s8.5-3.8,8.5-8.5c0-4.7-3.8-8.5-8.5-8.5Z"/>
    </g>
    <g class="st13">
      <circle class="st1" cx="419" cy="203.3" r="7.5" transform="translate(33.9 465.2) rotate(-60.1)"/>
    </g>
    <polygon class="st8" points="424.5 202.6 419.7 202.6 419.7 197.8 418.3 197.8 418.3 202.6 413.5 202.6 413.5 204 418.3 204 418.3 208.8 419.7 208.8 419.7 204 424.5 204 424.5 202.6"/>
  </g>
  <g>
    <g class="st12">
      <path class="st10" d="M419,571c-7.7,0-14-6.3-14-14,0-7.7,6.3-14,14-14s14,6.3,14,14c0,7.7-6.3,14-14,14ZM419,548.4c-4.7,0-8.5,3.8-8.5,8.5,0,4.7,3.8,8.5,8.5,8.5,4.7,0,8.5-3.8,8.5-8.5,0-4.7-3.8-8.5-8.5-8.5Z"/>
    </g>
    <g class="st13">
      <circle class="st1" cx="419" cy="556.9" r="7.5" transform="translate(-272.7 642.5) rotate(-60.1)"/>
    </g>
    <polygon class="st8" points="424.5 556.3 419.7 556.3 419.7 551.4 418.3 551.4 418.3 556.3 413.5 556.3 413.5 557.6 418.3 557.6 418.3 562.5 419.7 562.5 419.7 557.6 424.5 557.6 424.5 556.3"/>
  </g>
  <g>
    <g class="st12">
      <path class="st10" d="M181,571c-7.7,0-14-6.3-14-14,0-7.7,6.3-14,14-14,7.7,0,14,6.3,14,14,0,7.7-6.3,14-14,14ZM181,548.4c-4.7,0-8.5,3.8-8.5,8.5,0,4.7,3.8,8.5,8.5,8.5,4.7,0,8.5-3.8,8.5-8.5,0-4.7-3.8-8.5-8.5-8.5Z"/>
    </g>
    <g class="st13">
      <circle class="st1" cx="181" cy="556.9" r="7.5" transform="translate(-392 436.2) rotate(-60.1)"/>
    </g>
    <polygon class="st8" points="186.5 556.3 181.7 556.3 181.7 551.4 180.3 551.4 180.3 556.3 175.5 556.3 175.5 557.6 180.3 557.6 180.3 562.5 181.7 562.5 181.7 557.6 186.5 557.6 186.5 556.3"/>
  </g>
</svg>